<svg id="Layer_1" data-name="Layer 1" xmlns="http://www.w3.org/2000/svg" viewBox="0 0 313.81 289.9"><defs><style>.cls-1{fill:#fff;}</style></defs><title>group</title><path class="cls-1" d="M259,476V331.1H402.84V476Zm1.37-71.8c-.65,38.65,31.42,70.22,70.21,70.35,39.23.14,70.42-32.37,70.66-70.18.25-38.72-31.91-71.13-70.7-71.07C291.58,333.36,259.22,366.11,260.4,404.2Z" transform="translate(-89.03 -186.1)"/><path d="M260.4,404.2c-1.18-38.09,31.18-70.84,70.17-70.9,38.79-.06,70.95,32.35,70.7,71.07-.24,37.81-31.43,70.32-70.66,70.18C291.82,474.42,259.75,442.85,260.4,404.2Zm95.53,24c-15.7,16.28-32,15.59-49,2.12,6.21,9.21,14.88,13.4,25.7,12.77C343,442.52,350.64,437.2,355.93,428.23Zm-52.14-32.08,2.26,0c1.4-2,3.63-3.93,4-6.12.5-3.06-1.6-5.26-5-5.35-3.67-.1-5.92,2.35-5.61,5.44C299.62,392.27,302.24,394.16,303.79,396.15Zm59-5v-2.4c-2.11-1.35-4.36-3.94-6.27-3.7s-3.61,3.23-5.39,5c1.82,1.75,3.52,4.68,5.51,4.9S360.69,392.53,362.75,391.14Z" transform="translate(-89.03 -186.1)"/><path class="cls-1" d="M355.93,428.23c-5.29,9-12.89,14.29-23.28,14.89-10.82.63-19.49-3.56-25.7-12.77C323.92,443.82,340.23,444.51,355.93,428.23Z" transform="translate(-89.03 -186.1)"/><path class="cls-1" d="M303.79,396.15c-1.55-2-4.17-3.88-4.39-6-.31-3.09,1.94-5.54,5.61-5.44,3.42.09,5.52,2.29,5,5.35-.35,2.19-2.58,4.09-4,6.12Z" transform="translate(-89.03 -186.1)"/><path class="cls-1" d="M362.75,391.14c-2.06,1.39-4.26,4-6.15,3.82s-3.69-3.15-5.51-4.9c1.78-1.79,3.41-4.77,5.39-5s4.16,2.35,6.27,3.7Z" transform="translate(-89.03 -186.1)"/><ellipse class="cls-1" cx="213.38" cy="202.65" rx="8.75" ry="8.09"/><ellipse class="cls-1" cx="269.13" cy="202.65" rx="8.75" ry="8.09"/><path class="cls-1" d="M172.37,331V186.1h143.8V331Zm1.36-71.8c-.65,38.65,31.43,70.22,70.21,70.35,39.23.14,70.42-32.37,70.66-70.18.25-38.72-31.9-71.13-70.7-71.07C204.92,188.36,172.55,221.11,173.73,259.2Z" transform="translate(-89.03 -186.1)"/><path d="M173.73,259.2c-1.18-38.09,31.19-70.84,70.17-70.9,38.8-.06,71,32.35,70.7,71.07-.24,37.81-31.43,70.32-70.66,70.18C205.16,329.42,173.08,297.85,173.73,259.2Zm95.53,24c-15.7,16.28-32,15.59-49,2.12,6.21,9.21,14.87,13.4,25.69,12.77C256.37,297.52,264,292.2,269.26,283.23Zm-52.14-32.08,2.27,0c1.39-2,3.62-3.93,4-6.12.49-3.06-1.61-5.26-5-5.35-3.68-.1-5.93,2.35-5.61,5.44C213,247.27,215.58,249.16,217.12,251.15Zm59-5v-2.4c-2.1-1.35-4.36-3.94-6.27-3.7s-3.61,3.23-5.39,5c1.83,1.75,3.52,4.68,5.51,4.9S274,247.53,276.08,246.14Z" transform="translate(-89.03 -186.1)"/><path class="cls-1" d="M269.26,283.23c-5.29,9-12.89,14.29-23.28,14.89-10.82.63-19.48-3.56-25.69-12.77C237.25,298.82,253.56,299.51,269.26,283.23Z" transform="translate(-89.03 -186.1)"/><path class="cls-1" d="M217.12,251.15c-1.54-2-4.17-3.88-4.38-6-.32-3.09,1.93-5.54,5.61-5.44,3.41.09,5.51,2.29,5,5.35-.36,2.19-2.59,4.09-4,6.12Z" transform="translate(-89.03 -186.1)"/><path class="cls-1" d="M276.08,246.14c-2.06,1.39-4.26,4-6.15,3.82s-3.68-3.15-5.51-4.9c1.78-1.79,3.42-4.77,5.39-5s4.17,2.35,6.27,3.7Z" transform="translate(-89.03 -186.1)"/><ellipse class="cls-1" cx="126.72" cy="57.65" rx="8.75" ry="8.09"/><ellipse class="cls-1" cx="182.47" cy="57.65" rx="8.75" ry="8.09"/><path class="cls-1" d="M89,476V331.1H232.84V476Zm1.37-71.8c-.65,38.65,31.42,70.22,70.21,70.35,39.23.14,70.42-32.37,70.66-70.18.25-38.72-31.91-71.13-70.7-71.07C121.58,333.36,89.22,366.11,90.4,404.2Z" transform="translate(-89.03 -186.1)"/><path d="M90.4,404.2c-1.18-38.09,31.18-70.84,70.17-70.9,38.79-.06,71,32.35,70.7,71.07-.24,37.81-31.43,70.32-70.66,70.18C121.82,474.42,89.75,442.85,90.4,404.2Zm95.53,24c-15.7,16.28-32,15.59-49,2.12,6.21,9.21,14.88,13.4,25.7,12.77C173,442.52,180.64,437.2,185.93,428.23Zm-52.14-32.08,2.26,0c1.4-2,3.63-3.93,4-6.12.5-3.06-1.6-5.26-5-5.35-3.67-.1-5.92,2.35-5.61,5.44C129.62,392.27,132.24,394.16,133.79,396.15Zm59-5v-2.4c-2.11-1.35-4.36-3.94-6.27-3.7s-3.61,3.23-5.39,5c1.82,1.75,3.52,4.68,5.51,4.9S190.69,392.53,192.75,391.14Z" transform="translate(-89.03 -186.1)"/><path class="cls-1" d="M185.93,428.23c-5.29,9-12.89,14.29-23.28,14.89-10.82.63-19.49-3.56-25.7-12.77C153.92,443.82,170.23,444.51,185.93,428.23Z" transform="translate(-89.03 -186.1)"/><path class="cls-1" d="M133.79,396.15c-1.55-2-4.17-3.88-4.39-6-.31-3.09,1.94-5.54,5.61-5.44,3.42.09,5.52,2.29,5,5.35-.35,2.19-2.58,4.09-4,6.12Z" transform="translate(-89.03 -186.1)"/><path class="cls-1" d="M192.75,391.14c-2.06,1.39-4.26,4-6.15,3.82s-3.69-3.15-5.51-4.9c1.78-1.79,3.41-4.77,5.39-5s4.16,2.35,6.27,3.7Z" transform="translate(-89.03 -186.1)"/><ellipse class="cls-1" cx="43.38" cy="202.65" rx="8.75" ry="8.09"/><ellipse class="cls-1" cx="99.13" cy="202.65" rx="8.75" ry="8.09"/></svg>