<svg id="Layer_1" data-name="Layer 1" xmlns="http://www.w3.org/2000/svg" viewBox="0 0 143.81 144.9"><defs><style>.cls-1{fill:#fff;}</style></defs><title>smile</title><path class="cls-1" d="M235,469V324.1H378.84V469Zm1.37-71.8c-.65,38.65,31.42,70.22,70.21,70.35,39.23.14,70.42-32.37,70.66-70.18.25-38.72-31.91-71.13-70.7-71.07C267.58,326.36,235.22,359.11,236.4,397.2Z" transform="translate(-235.03 -324.1)"/><path d="M236.4,397.2c-1.18-38.09,31.18-70.84,70.17-70.9,38.79-.06,70.95,32.35,70.7,71.07-.24,37.81-31.43,70.32-70.66,70.18C267.82,467.42,235.75,435.85,236.4,397.2Zm95.53,24c-15.7,16.28-32,15.59-49,2.12,6.21,9.21,14.88,13.4,25.7,12.77C319,435.52,326.64,430.2,331.93,421.23Zm-52.14-32.08,2.26,0c1.4-2,3.63-3.93,4-6.12.5-3.06-1.6-5.26-5-5.35-3.67-.1-5.92,2.35-5.61,5.44C275.62,385.27,278.24,387.16,279.79,389.15Zm59-5v-2.4c-2.11-1.35-4.36-3.94-6.27-3.7s-3.61,3.23-5.39,5c1.82,1.75,3.52,4.68,5.51,4.9S336.69,385.53,338.75,384.14Z" transform="translate(-235.03 -324.1)"/><path class="cls-1" d="M331.93,421.23c-5.29,9-12.89,14.29-23.28,14.89-10.82.63-19.49-3.56-25.7-12.77C299.92,436.82,316.23,437.51,331.93,421.23Z" transform="translate(-235.03 -324.1)"/><path class="cls-1" d="M279.79,389.15c-1.55-2-4.17-3.88-4.39-6-.31-3.09,1.94-5.54,5.61-5.44,3.42.09,5.52,2.29,5,5.35-.35,2.19-2.58,4.09-4,6.12Z" transform="translate(-235.03 -324.1)"/><path class="cls-1" d="M338.75,384.14c-2.06,1.39-4.26,4-6.15,3.82s-3.69-3.15-5.51-4.9c1.78-1.79,3.41-4.77,5.39-5s4.16,2.35,6.27,3.7Z" transform="translate(-235.03 -324.1)"/><ellipse class="cls-1" cx="43.38" cy="57.65" rx="8.75" ry="8.09"/><ellipse class="cls-1" cx="99.13" cy="57.65" rx="8.75" ry="8.09"/></svg>