<svg xmlns="http://www.w3.org/2000/svg" viewBox="0 0 225 224.69"><defs><style>.cls-1{fill:#fff;}</style></defs><title>Asset 1</title><g id="Layer_2" data-name="Layer 2"><g id="Layer_1-2" data-name="Layer 1"><g id="C2j05C.tif"><path d="M225,105.69v15a33.6,33.6,0,0,0-.86,3.77,112.21,112.21,0,0,1-82.22,96.15c-6.84,1.85-13.94,2.74-20.92,4.08H104a23.74,23.74,0,0,0-3.36-.8c-44.79-4.6-82.87-35.9-95.6-79-2.33-7.88-3.39-16.12-5-24.2v-19c.82-4.37,1.5-8.78,2.5-13.11C15.55,31.76,65.5-4.55,123.63.46,168.12,4.3,207.83,36.87,220,79.92,222.33,88.32,223.35,97.09,225,105.69ZM20.83,111.36c-.61,52.51,43.21,93.8,93.92,92.49s91.2-44.52,89.39-95.09C202.38,59.5,160.45,19.5,110.36,20.6,60.92,21.68,19.71,63.46,20.83,111.36Z"/><path class="cls-1" d="M20.83,111.36c-1.12-47.9,40.09-89.68,89.53-90.76,50.09-1.1,92,38.9,93.78,88.16,1.81,50.57-38.79,93.77-89.39,95.09S20.22,163.87,20.83,111.36ZM103,121.69v39.36c0,7.7,3.42,12.13,9.36,12.17,6.16,0,9.63-4.44,9.64-12.42V121.69c14.09,0,27.56,0,41,0,6.28,0,10.61-4,10.56-9.5s-4.29-9.44-10.61-9.46c-12-.06-24,0-36,0h-5V96.51c0-11.66.07-23.31,0-35-.06-7.36-5.47-11.7-12.12-10-4.33,1.13-6.83,4.8-6.84,10.29,0,13.45,0,26.89,0,40.82-13.76,0-27,0-40.31,0-6.8,0-11.23,3.66-11.32,9.25-.1,5.86,4.36,9.72,11.36,9.73C75.89,121.7,89,121.69,103,121.69Z"/><path d="M103,121.69c-14,0-27.11,0-40.27,0-7,0-11.46-3.87-11.36-9.73.09-5.59,4.52-9.24,11.32-9.25,13.28,0,26.55,0,40.31,0,0-13.93,0-27.37,0-40.82,0-5.49,2.51-9.16,6.84-10.29,6.65-1.74,12.06,2.6,12.12,10,.1,11.66,0,23.31,0,35v6.18h5c12,0,24,0,36,0,6.32,0,10.55,3.89,10.61,9.46s-4.28,9.47-10.56,9.5c-13.46.06-26.93,0-41,0V160.8c0,8-3.48,12.46-9.64,12.42-5.94,0-9.35-4.47-9.36-12.17V121.69Z"/></g></g></g></svg>